<svg aria-hidden="true" focusable="false" role="img" class="jonnitto-prettyembed-button jonnitto-prettyembed-button--pause" xmlns="http://www.w3.org/2000/svg" viewBox="0 0 72 72">
    <circle class="jonnitto-prettyembed-button__background" stroke="currentColor" cx="36" cy="36" r="33"/>
    <path class="jonnitto-prettyembed-button__foreground" fill="currentColor" fill-rule="nonzero" d="M31.844 23.532H25.61c-1.147 0-2.078.93-2.078 2.078v20.78c0 1.147.93 2.078 2.078 2.078h6.234c1.148 0 2.078-.93 2.078-2.078V25.61c0-1.147-.93-2.078-2.078-2.078zm14.546 0h-6.234c-1.148 0-2.078.93-2.078 2.078v20.78c0 1.147.93 2.078 2.078 2.078h6.234c1.147 0 2.078-.93 2.078-2.078V25.61c0-1.147-.93-2.078-2.078-2.078z" />
</svg>
